<svg width="133" height="31" viewBox="0 0 133 31" fill="none" xmlns="http://www.w3.org/2000/svg">
<path d="M11.8706 18.2475H17.806V12.3597H11.8706V18.2475ZM11.8706 0.588784V6.47662H17.806V0.588784H11.8706ZM0 24.1354V30.0232H5.93532V24.1354H0ZM0 18.2475H5.93532V12.3597H0V18.2475ZM0 0.588784V6.47662H5.93532V0.588784H0ZM11.8706 30.0232H17.806V24.1354H11.8706V30.0232ZM35.6072 18.2475H41.5425V12.3597H35.6072V18.2475ZM29.6718 6.47662V0.588784H23.7365V6.47662H29.6718ZM80.6634 15.3891V5.96856H86.385C89.8607 5.96856 91.8123 7.64944 91.8123 10.6788C91.8123 13.7082 89.8607 15.3891 86.385 15.3891H80.6634ZM59.13 5.96856C62.6057 5.96856 64.5573 7.64944 64.5573 10.6788C64.5573 13.7082 62.6057 15.3891 59.13 15.3891H53.4084V5.96856H59.13ZM29.6718 30.0232V12.3597H23.7365V30.0185H29.6718V30.0232ZM107.453 15.3036C107.453 9.83839 111.522 5.63143 116.95 5.63143C122.377 5.63143 126.446 9.83839 126.446 15.3036C126.446 20.7689 122.377 24.9758 116.95 24.9758C111.522 24.9758 107.453 20.7689 107.453 15.3036ZM47.4731 30.0232H53.4084V20.7736H59.5526C66.2097 20.7736 70.616 16.6949 70.616 10.6836C70.616 4.67228 66.2097 0.588784 59.5574 0.588784H47.4778V30.0232H47.4731ZM80.6634 30.0232V20.7736H87.0213L91.8123 30.0232H98.4693L92.534 19.2589C95.8815 17.578 97.8758 14.4632 97.8758 10.6788C97.8758 4.66754 93.4694 0.588784 86.8123 0.588784H74.7328V30.0232H80.6681H80.6634ZM101.309 15.3036C101.309 23.9217 108.132 30.6073 116.95 30.6073C125.767 30.6073 132.59 23.9217 132.59 15.3036C132.59 6.68554 125.767 0 116.95 0C108.132 0 101.309 6.68554 101.309 15.3036Z" fill="#171B24"/>
<path d="M11.8706 18.2475H17.806V12.3597H11.8706V18.2475ZM11.8706 0.588784V6.47662H17.806V0.588784H11.8706ZM0 24.1354V30.0232H5.93532V24.1354H0ZM0 18.2475H5.93532V12.3597H0V18.2475ZM0 0.588784V6.47662H5.93532V0.588784H0ZM11.8706 30.0232H17.806V24.1354H11.8706V30.0232ZM35.6072 18.2475H41.5425V12.3597H35.6072V18.2475ZM29.6718 6.47662V0.588784H23.7365V6.47662H29.6718ZM80.6634 15.3891V5.96856H86.385C89.8607 5.96856 91.8123 7.64944 91.8123 10.6788C91.8123 13.7082 89.8607 15.3891 86.385 15.3891H80.6634ZM59.13 5.96856C62.6057 5.96856 64.5573 7.64944 64.5573 10.6788C64.5573 13.7082 62.6057 15.3891 59.13 15.3891H53.4084V5.96856H59.13ZM29.6718 30.0232V12.3597H23.7365V30.0185H29.6718V30.0232ZM107.453 15.3036C107.453 9.83839 111.522 5.63143 116.95 5.63143C122.377 5.63143 126.446 9.83839 126.446 15.3036C126.446 20.7689 122.377 24.9758 116.95 24.9758C111.522 24.9758 107.453 20.7689 107.453 15.3036ZM47.4731 30.0232H53.4084V20.7736H59.5526C66.2097 20.7736 70.616 16.6949 70.616 10.6836C70.616 4.67228 66.2097 0.588784 59.5574 0.588784H47.4778V30.0232H47.4731ZM80.6634 30.0232V20.7736H87.0213L91.8123 30.0232H98.4693L92.534 19.2589C95.8815 17.578 97.8758 14.4632 97.8758 10.6788C97.8758 4.66754 93.4694 0.588784 86.8123 0.588784H74.7328V30.0232H80.6681H80.6634ZM101.309 15.3036C101.309 23.9217 108.132 30.6073 116.95 30.6073C125.767 30.6073 132.59 23.9217 132.59 15.3036C132.59 6.68554 125.767 0 116.95 0C108.132 0 101.309 6.68554 101.309 15.3036Z" fill="url(#paint0_linear_2_424)" fill-opacity="0.2"/>
<defs>
<linearGradient id="paint0_linear_2_424" x1="-81" y1="15.3036" x2="230" y2="15.3036" gradientUnits="userSpaceOnUse">
<stop stop-color="white" stop-opacity="0"/>
<stop offset="1" stop-color="white"/>
</linearGradient>
</defs>
</svg>
