<svg preserveAspectRatio="none" width="100%" height="100%" overflow="visible" style="display: block;" viewBox="0 0 20 20" fill="none" xmlns="http://www.w3.org/2000/svg">
<g id="material-symbols:arrow-back-rounded">
<path id="Vector" d="M6.52091 10.8334L10.6042 14.9167C10.7709 15.0834 10.8509 15.2778 10.8442 15.5C10.8376 15.7223 10.7506 15.9167 10.5834 16.0834C10.4167 16.2362 10.2223 16.3162 10.0001 16.3234C9.77785 16.3306 9.58341 16.2506 9.41674 16.0834L3.91674 10.5834C3.83341 10.5 3.77424 10.4098 3.73924 10.3125C3.70424 10.2153 3.68729 10.1112 3.68841 10C3.68952 9.88893 3.70702 9.78476 3.74091 9.68754C3.77479 9.59032 3.83368 9.50004 3.91757 9.41671L9.41757 3.91671C9.57035 3.76393 9.76146 3.68754 9.99091 3.68754C10.2204 3.68754 10.4181 3.76393 10.5842 3.91671C10.7509 4.08337 10.8342 4.28143 10.8342 4.51087C10.8342 4.74032 10.7509 4.9381 10.5842 5.10421L6.52091 9.16671H15.8334C16.0695 9.16671 16.2676 9.24671 16.4276 9.40671C16.5876 9.56671 16.6673 9.76449 16.6667 10C16.6662 10.2356 16.5862 10.4337 16.4267 10.5942C16.2673 10.7548 16.0695 10.8345 15.8334 10.8334H6.52091Z" fill="var(--fill-0, white)"/>
</g>
</svg>
