<svg width="1200" height="803" viewBox="0 0 1200 803" fill="none" xmlns="http://www.w3.org/2000/svg">
<path fill-rule="evenodd" clip-rule="evenodd" d="M112.5 127.152H250.331V0H251.571V127.152H393.376V0H394.616V127.152H532.449V0H533.689V127.152H667.551V0H668.792V127.152H806.624V0H807.865V127.152H949.669V0H950.909V127.152H1088.74V0H1089.98V127.152H1200V128.393H1089.98V262.252H1200V263.492H1089.98V401.324L1200 401.325V402.565L1089.98 402.564V540.397H1200V541.637H1089.98V679.47H1200V680.71H1089.98V802.65H1088.74V680.71H950.909V802.65H949.669V680.71H807.865V802.65H806.624V680.71H668.792V802.65H667.551V680.71H533.689V802.65H532.449V680.71H394.616V802.65H393.376V680.71H251.571V802.65H250.331V680.71H112.5V802.65H111.259V680.71H0V679.47H111.259L111.258 541.637H0V540.397H111.258V402.564H0V401.324H111.258L111.259 263.492H0V262.252H111.259V128.393H0V127.152H111.259V0H112.5V127.152ZM112.5 679.47H250.331L250.33 541.637H112.498L112.5 679.47ZM251.571 679.47H393.376V541.637H251.57L251.571 679.47ZM394.616 679.47H532.449V541.637H394.616V679.47ZM533.689 679.47H667.551V541.637H533.689V679.47ZM668.792 679.47H806.624V541.637H668.792V679.47ZM807.865 679.47H949.669V541.637H807.865V679.47ZM950.909 679.47H1088.74V541.637H950.909V679.47ZM112.498 540.397H250.33V402.564H112.498V540.397ZM251.57 540.397H393.376V402.564H251.57V540.397ZM394.616 540.397H532.449V402.564H394.616V540.397ZM533.689 540.397H667.551V402.564H533.689V540.397ZM668.792 540.397H806.624V402.564H668.792V540.397ZM807.865 540.397H949.669V402.564H807.865V540.397ZM950.909 540.397H1088.74V402.564H950.909V540.397ZM112.498 401.324H250.33L250.331 263.492H112.5L112.498 401.324ZM251.57 401.324H393.376V263.492H251.571L251.57 401.324ZM394.616 401.324H532.449V263.492H394.616V401.324ZM533.689 401.324H667.551V263.492H533.689V401.324ZM668.792 401.324H806.624V263.492H668.792V401.324ZM807.865 401.324H949.669V263.492H807.865V401.324ZM950.909 401.324H1088.74V263.492H950.909V401.324ZM112.5 262.252H250.331V128.393H112.5V262.252ZM251.571 262.252H393.376V128.393H251.571V262.252ZM394.616 262.252H532.449V128.393H394.616V262.252ZM533.689 262.252H667.551V128.393H533.689V262.252ZM668.792 262.252H806.624V128.393H668.792V262.252ZM807.865 262.252H949.669V128.393H807.865V262.252ZM950.909 262.252H1088.74V128.393H950.909V262.252Z" fill="url(#paint0_radial_23_574)"/>
<defs>
<radialGradient id="paint0_radial_23_574" cx="0" cy="0" r="1" gradientUnits="userSpaceOnUse" gradientTransform="translate(600 401.325) scale(719.205 481.058)">
<stop stop-color="#13141A"/>
<stop offset="1" stop-color="#13141A" stop-opacity="0"/>
</radialGradient>
</defs>
</svg>
